<mxfile host="app.diagrams.net" agent="Mozilla/5.0 (Macintosh; Intel Mac OS X 10.15; rv:134.0) Gecko/20100101 Firefox/134.0" version="26.0.10">
  <diagram name="Page-1" id="59aivcgPfOivw9YyUUwx">
    <mxGraphModel dx="1242" dy="795" grid="1" gridSize="10" guides="1" tooltips="1" connect="1" arrows="1" fold="1" page="0" pageScale="1" pageWidth="850" pageHeight="1100" math="0" shadow="0">
      <root>
        <mxCell id="0" />
        <mxCell id="1" parent="0" />
        <mxCell id="zv3qVY0_J-6g5EqpZd1D-3" value="Database Cluster" style="whiteSpace=wrap;strokeWidth=2;" vertex="1" parent="1">
          <mxGeometry x="272" y="325" width="1067" height="257" as="geometry" />
        </mxCell>
        <mxCell id="zv3qVY0_J-6g5EqpZd1D-4" value="Data Processing" style="whiteSpace=wrap;strokeWidth=2;" vertex="1" parent="1">
          <mxGeometry x="722" y="20" width="492" height="232" as="geometry" />
        </mxCell>
        <mxCell id="zv3qVY0_J-6g5EqpZd1D-5" value="Worker Service" style="whiteSpace=wrap;strokeWidth=2;" vertex="1" parent="1">
          <mxGeometry x="940" y="45" width="167" height="54" as="geometry" />
        </mxCell>
        <mxCell id="zv3qVY0_J-6g5EqpZd1D-6" value="Shard Router" style="whiteSpace=wrap;strokeWidth=2;" vertex="1" parent="1">
          <mxGeometry x="948" y="173" width="152" height="54" as="geometry" />
        </mxCell>
        <mxCell id="zv3qVY0_J-6g5EqpZd1D-7" value="Shard One Primary" style="whiteSpace=wrap;strokeWidth=2;" vertex="1" parent="1">
          <mxGeometry x="744" y="350" width="193" height="54" as="geometry" />
        </mxCell>
        <mxCell id="zv3qVY0_J-6g5EqpZd1D-8" value="Shard Two Primary" style="whiteSpace=wrap;strokeWidth=2;" vertex="1" parent="1">
          <mxGeometry x="1049" y="350" width="192" height="54" as="geometry" />
        </mxCell>
        <mxCell id="zv3qVY0_J-6g5EqpZd1D-9" value="Shard One Read Replica" style="whiteSpace=wrap;strokeWidth=2;" vertex="1" parent="1">
          <mxGeometry x="307" y="503" width="229" height="54" as="geometry" />
        </mxCell>
        <mxCell id="zv3qVY0_J-6g5EqpZd1D-10" value="Shard One Standby" style="whiteSpace=wrap;strokeWidth=2;" vertex="1" parent="1">
          <mxGeometry x="865" y="503" width="195" height="54" as="geometry" />
        </mxCell>
        <mxCell id="zv3qVY0_J-6g5EqpZd1D-11" value="Shard Two Read Replica" style="whiteSpace=wrap;strokeWidth=2;" vertex="1" parent="1">
          <mxGeometry x="586" y="503" width="229" height="54" as="geometry" />
        </mxCell>
        <mxCell id="zv3qVY0_J-6g5EqpZd1D-12" value="Shard Two Standby" style="whiteSpace=wrap;strokeWidth=2;" vertex="1" parent="1">
          <mxGeometry x="1110" y="503" width="194" height="54" as="geometry" />
        </mxCell>
        <mxCell id="zv3qVY0_J-6g5EqpZd1D-13" value="Dashboard API" style="whiteSpace=wrap;strokeWidth=2;" vertex="1" parent="1">
          <mxGeometry x="55" y="350" width="162" height="54" as="geometry" />
        </mxCell>
        <mxCell id="zv3qVY0_J-6g5EqpZd1D-14" value="Insert Data" style="curved=1;startArrow=none;endArrow=block;exitX=0.5;exitY=1;entryX=0.5;entryY=-0.01;rounded=0;" edge="1" parent="1" source="zv3qVY0_J-6g5EqpZd1D-5" target="zv3qVY0_J-6g5EqpZd1D-6">
          <mxGeometry relative="1" as="geometry">
            <Array as="points" />
          </mxGeometry>
        </mxCell>
        <mxCell id="zv3qVY0_J-6g5EqpZd1D-15" value="Route Data" style="curved=1;startArrow=none;endArrow=block;exitX=0;exitY=0.89;entryX=0.5;entryY=0;rounded=0;" edge="1" parent="1" source="zv3qVY0_J-6g5EqpZd1D-6" target="zv3qVY0_J-6g5EqpZd1D-7">
          <mxGeometry relative="1" as="geometry">
            <Array as="points">
              <mxPoint x="840" y="252" />
            </Array>
          </mxGeometry>
        </mxCell>
        <mxCell id="zv3qVY0_J-6g5EqpZd1D-16" value="Route Data" style="curved=1;startArrow=none;endArrow=block;exitX=0.91;exitY=0.99;entryX=0.5;entryY=0;rounded=0;" edge="1" parent="1" source="zv3qVY0_J-6g5EqpZd1D-6" target="zv3qVY0_J-6g5EqpZd1D-8">
          <mxGeometry relative="1" as="geometry">
            <Array as="points">
              <mxPoint x="1145" y="252" />
            </Array>
          </mxGeometry>
        </mxCell>
        <mxCell id="zv3qVY0_J-6g5EqpZd1D-17" value="Replicates To" style="curved=1;startArrow=none;endArrow=block;exitX=0.44;exitY=1;entryX=1;entryY=0.15;rounded=0;" edge="1" parent="1" source="zv3qVY0_J-6g5EqpZd1D-7" target="zv3qVY0_J-6g5EqpZd1D-9">
          <mxGeometry relative="1" as="geometry">
            <Array as="points">
              <mxPoint x="818" y="429" />
              <mxPoint x="818" y="466" />
            </Array>
          </mxGeometry>
        </mxCell>
        <mxCell id="zv3qVY0_J-6g5EqpZd1D-18" value="Replicates To" style="curved=1;startArrow=none;endArrow=block;exitX=0.83;exitY=1;entryX=0.5;entryY=-0.01;rounded=0;" edge="1" parent="1" source="zv3qVY0_J-6g5EqpZd1D-7" target="zv3qVY0_J-6g5EqpZd1D-10">
          <mxGeometry relative="1" as="geometry">
            <Array as="points">
              <mxPoint x="962" y="429" />
            </Array>
          </mxGeometry>
        </mxCell>
        <mxCell id="zv3qVY0_J-6g5EqpZd1D-19" value="Replicates To" style="curved=1;startArrow=none;endArrow=block;exitX=0.33;exitY=1;entryX=1;entryY=0.14;rounded=0;" edge="1" parent="1" source="zv3qVY0_J-6g5EqpZd1D-8" target="zv3qVY0_J-6g5EqpZd1D-11">
          <mxGeometry relative="1" as="geometry">
            <Array as="points">
              <mxPoint x="1083" y="429" />
              <mxPoint x="1083" y="466" />
            </Array>
          </mxGeometry>
        </mxCell>
        <mxCell id="zv3qVY0_J-6g5EqpZd1D-20" value="Replicates To" style="curved=1;startArrow=none;endArrow=block;exitX=0.67;exitY=1;entryX=0.5;entryY=-0.01;rounded=0;" edge="1" parent="1" source="zv3qVY0_J-6g5EqpZd1D-8" target="zv3qVY0_J-6g5EqpZd1D-12">
          <mxGeometry relative="1" as="geometry">
            <Array as="points">
              <mxPoint x="1207" y="429" />
            </Array>
          </mxGeometry>
        </mxCell>
        <mxCell id="zv3qVY0_J-6g5EqpZd1D-21" value="Query" style="curved=1;startArrow=none;endArrow=block;exitX=0.38;exitY=1;entryX=0.5;entryY=-0.01;rounded=0;" edge="1" parent="1" source="zv3qVY0_J-6g5EqpZd1D-13" target="zv3qVY0_J-6g5EqpZd1D-9">
          <mxGeometry relative="1" as="geometry">
            <Array as="points">
              <mxPoint x="98" y="429" />
              <mxPoint x="422" y="466" />
            </Array>
          </mxGeometry>
        </mxCell>
        <mxCell id="zv3qVY0_J-6g5EqpZd1D-22" value="Query" style="curved=1;startArrow=none;endArrow=block;exitX=0.65;exitY=1;entryX=0.5;entryY=-0.01;rounded=0;" edge="1" parent="1" source="zv3qVY0_J-6g5EqpZd1D-13" target="zv3qVY0_J-6g5EqpZd1D-11">
          <mxGeometry relative="1" as="geometry">
            <Array as="points">
              <mxPoint x="184" y="429" />
              <mxPoint x="701" y="466" />
            </Array>
          </mxGeometry>
        </mxCell>
      </root>
    </mxGraphModel>
  </diagram>
</mxfile>
